<svg xmlns="http://www.w3.org/2000/svg" width="46" height="46" fill="none"><rect width="46" height="46" rx="11" fill="#FF335F"/><g clip-path="url(#a)"><path d="M21.509 9C12.947 9 6 15.97 6 24.56h6.2C12.2 31.426 17.755 37 24.6 37 31.355 37 37 31.526 37 24.56 37 15.843 29.967 9 21.509 9ZM24.6 30.78c-3.431 0-6.2-2.778-6.2-6.22 0-3.443 2.769-6.221 6.2-6.221s6.2 2.778 6.2 6.22c0 3.443-2.769 6.22-6.2 6.22Z" fill="#fff"/></g><defs><clipPath id="a"><path fill="#fff" transform="translate(6 9)" d="M0 0h31v28H0z"/></clipPath></defs></svg>